<mxfile host="app.diagrams.net" agent="Mozilla/5.0 (Macintosh; Intel Mac OS X 10_15_7) AppleWebKit/605.1.15 (KHTML, like Gecko) Version/18.3 Safari/605.1.15" version="26.0.15">
  <diagram name="Page-1" id="JkGR4OsKK1i_pOLGdoNv">
    <mxGraphModel dx="1194" dy="825" grid="1" gridSize="10" guides="1" tooltips="1" connect="1" arrows="1" fold="1" page="1" pageScale="1" pageWidth="827" pageHeight="1169" math="0" shadow="0">
      <root>
        <mxCell id="0" />
        <mxCell id="1" parent="0" />
        <mxCell id="7FSGDcXbMSYoSn9ROhq5-1" value="" style="whiteSpace=wrap;html=1;aspect=fixed;" vertex="1" parent="1">
          <mxGeometry x="50" y="50" width="240" height="240" as="geometry" />
        </mxCell>
        <mxCell id="7FSGDcXbMSYoSn9ROhq5-4" value="" style="whiteSpace=wrap;html=1;aspect=fixed;" vertex="1" parent="1">
          <mxGeometry x="560" y="50" width="240" height="240" as="geometry" />
        </mxCell>
        <mxCell id="7FSGDcXbMSYoSn9ROhq5-5" value="Oauth2" style="whiteSpace=wrap;html=1;aspect=fixed;" vertex="1" parent="1">
          <mxGeometry x="640" y="130" width="80" height="80" as="geometry" />
        </mxCell>
        <mxCell id="7FSGDcXbMSYoSn9ROhq5-6" value="Page WEB&amp;nbsp;" style="whiteSpace=wrap;html=1;aspect=fixed;" vertex="1" parent="1">
          <mxGeometry x="560" y="490" width="240" height="240" as="geometry" />
        </mxCell>
        <mxCell id="7FSGDcXbMSYoSn9ROhq5-7" value="vérification token&amp;nbsp;" style="text;html=1;align=center;verticalAlign=middle;whiteSpace=wrap;rounded=0;" vertex="1" parent="1">
          <mxGeometry x="360" y="80" width="130" height="30" as="geometry" />
        </mxCell>
        <mxCell id="7FSGDcXbMSYoSn9ROhq5-8" value="" style="edgeStyle=orthogonalEdgeStyle;rounded=0;orthogonalLoop=1;jettySize=auto;html=1;" edge="1" parent="1" source="7FSGDcXbMSYoSn9ROhq5-9" target="7FSGDcXbMSYoSn9ROhq5-1">
          <mxGeometry relative="1" as="geometry" />
        </mxCell>
        <mxCell id="7FSGDcXbMSYoSn9ROhq5-9" value="Token vérifié" style="text;html=1;align=center;verticalAlign=middle;whiteSpace=wrap;rounded=0;" vertex="1" parent="1">
          <mxGeometry x="384.5" y="130" width="91" height="30" as="geometry" />
        </mxCell>
        <mxCell id="7FSGDcXbMSYoSn9ROhq5-10" value="Envoi données" style="text;html=1;align=center;verticalAlign=middle;whiteSpace=wrap;rounded=0;" vertex="1" parent="1">
          <mxGeometry x="350" y="210" width="160" height="30" as="geometry" />
        </mxCell>
        <mxCell id="7FSGDcXbMSYoSn9ROhq5-11" value="" style="endArrow=none;html=1;rounded=0;entryX=-0.012;entryY=0.417;entryDx=0;entryDy=0;entryPerimeter=0;" edge="1" parent="1" target="7FSGDcXbMSYoSn9ROhq5-4">
          <mxGeometry width="50" height="50" relative="1" as="geometry">
            <mxPoint x="470" y="150" as="sourcePoint" />
            <mxPoint x="520" y="100" as="targetPoint" />
          </mxGeometry>
        </mxCell>
        <mxCell id="7FSGDcXbMSYoSn9ROhq5-12" value="" style="endArrow=none;html=1;rounded=0;exitX=0.996;exitY=0.721;exitDx=0;exitDy=0;entryX=0;entryY=0.5;entryDx=0;entryDy=0;exitPerimeter=0;" edge="1" parent="1" source="7FSGDcXbMSYoSn9ROhq5-1" target="7FSGDcXbMSYoSn9ROhq5-10">
          <mxGeometry width="50" height="50" relative="1" as="geometry">
            <mxPoint x="330" y="270" as="sourcePoint" />
            <mxPoint x="380" y="220" as="targetPoint" />
          </mxGeometry>
        </mxCell>
        <mxCell id="7FSGDcXbMSYoSn9ROhq5-13" value="" style="endArrow=classic;html=1;rounded=0;entryX=0.004;entryY=0.721;entryDx=0;entryDy=0;exitX=1;exitY=0.5;exitDx=0;exitDy=0;entryPerimeter=0;" edge="1" parent="1" source="7FSGDcXbMSYoSn9ROhq5-10" target="7FSGDcXbMSYoSn9ROhq5-4">
          <mxGeometry width="50" height="50" relative="1" as="geometry">
            <mxPoint x="520" y="230" as="sourcePoint" />
            <mxPoint x="525.5" y="180" as="targetPoint" />
          </mxGeometry>
        </mxCell>
        <mxCell id="7FSGDcXbMSYoSn9ROhq5-14" value="" style="endArrow=none;html=1;rounded=0;exitX=0.996;exitY=0.721;exitDx=0;exitDy=0;entryX=0;entryY=0.5;entryDx=0;entryDy=0;exitPerimeter=0;" edge="1" parent="1" target="7FSGDcXbMSYoSn9ROhq5-7">
          <mxGeometry width="50" height="50" relative="1" as="geometry">
            <mxPoint x="290" y="94" as="sourcePoint" />
            <mxPoint x="351" y="96" as="targetPoint" />
          </mxGeometry>
        </mxCell>
        <mxCell id="7FSGDcXbMSYoSn9ROhq5-15" value="" style="endArrow=classic;html=1;rounded=0;entryX=0.004;entryY=0.721;entryDx=0;entryDy=0;exitX=1;exitY=0.5;exitDx=0;exitDy=0;entryPerimeter=0;" edge="1" parent="1" source="7FSGDcXbMSYoSn9ROhq5-7">
          <mxGeometry width="50" height="50" relative="1" as="geometry">
            <mxPoint x="509" y="96" as="sourcePoint" />
            <mxPoint x="560" y="94" as="targetPoint" />
          </mxGeometry>
        </mxCell>
        <mxCell id="7FSGDcXbMSYoSn9ROhq5-16" value="RPI" style="text;html=1;align=center;verticalAlign=middle;whiteSpace=wrap;rounded=0;" vertex="1" parent="1">
          <mxGeometry x="730" y="60" width="60" height="30" as="geometry" />
        </mxCell>
        <mxCell id="7FSGDcXbMSYoSn9ROhq5-17" value="" style="edgeStyle=orthogonalEdgeStyle;rounded=0;orthogonalLoop=1;jettySize=auto;html=1;" edge="1" parent="1" source="7FSGDcXbMSYoSn9ROhq5-18" target="7FSGDcXbMSYoSn9ROhq5-6">
          <mxGeometry relative="1" as="geometry" />
        </mxCell>
        <mxCell id="7FSGDcXbMSYoSn9ROhq5-18" value="Token vérifié" style="text;html=1;align=center;verticalAlign=middle;whiteSpace=wrap;rounded=0;" vertex="1" parent="1">
          <mxGeometry x="634.5" y="410" width="91" height="30" as="geometry" />
        </mxCell>
        <mxCell id="7FSGDcXbMSYoSn9ROhq5-19" value="Envoi données" style="text;html=1;align=center;verticalAlign=middle;whiteSpace=wrap;rounded=0;" vertex="1" parent="1">
          <mxGeometry x="490" y="350" width="160" height="30" as="geometry" />
        </mxCell>
        <mxCell id="7FSGDcXbMSYoSn9ROhq5-20" value="" style="endArrow=classic;html=1;rounded=0;entryX=0.833;entryY=1;entryDx=0;entryDy=0;entryPerimeter=0;" edge="1" parent="1" target="7FSGDcXbMSYoSn9ROhq5-4">
          <mxGeometry width="50" height="50" relative="1" as="geometry">
            <mxPoint x="760" y="350" as="sourcePoint" />
            <mxPoint x="810" y="300" as="targetPoint" />
          </mxGeometry>
        </mxCell>
        <mxCell id="7FSGDcXbMSYoSn9ROhq5-21" value="" style="endArrow=none;html=1;rounded=0;exitX=0.833;exitY=0.008;exitDx=0;exitDy=0;exitPerimeter=0;" edge="1" parent="1" source="7FSGDcXbMSYoSn9ROhq5-6">
          <mxGeometry width="50" height="50" relative="1" as="geometry">
            <mxPoint x="710" y="430" as="sourcePoint" />
            <mxPoint x="760" y="380" as="targetPoint" />
          </mxGeometry>
        </mxCell>
        <mxCell id="7FSGDcXbMSYoSn9ROhq5-22" value="" style="endArrow=classic;html=1;rounded=0;entryX=0.042;entryY=-0.012;entryDx=0;entryDy=0;entryPerimeter=0;" edge="1" parent="1" target="7FSGDcXbMSYoSn9ROhq5-6">
          <mxGeometry width="50" height="50" relative="1" as="geometry">
            <mxPoint x="570" y="380" as="sourcePoint" />
            <mxPoint x="620" y="330" as="targetPoint" />
          </mxGeometry>
        </mxCell>
        <mxCell id="7FSGDcXbMSYoSn9ROhq5-23" value="" style="endArrow=none;html=1;rounded=0;entryX=0.046;entryY=1.004;entryDx=0;entryDy=0;entryPerimeter=0;" edge="1" parent="1" target="7FSGDcXbMSYoSn9ROhq5-4">
          <mxGeometry width="50" height="50" relative="1" as="geometry">
            <mxPoint x="570" y="350" as="sourcePoint" />
            <mxPoint x="620" y="300" as="targetPoint" />
          </mxGeometry>
        </mxCell>
        <mxCell id="7FSGDcXbMSYoSn9ROhq5-24" value="" style="endArrow=none;html=1;rounded=0;entryX=0.5;entryY=1;entryDx=0;entryDy=0;exitX=0.5;exitY=0;exitDx=0;exitDy=0;" edge="1" parent="1" source="7FSGDcXbMSYoSn9ROhq5-18" target="7FSGDcXbMSYoSn9ROhq5-4">
          <mxGeometry width="50" height="50" relative="1" as="geometry">
            <mxPoint x="675.5" y="410" as="sourcePoint" />
            <mxPoint x="725.5" y="360" as="targetPoint" />
          </mxGeometry>
        </mxCell>
        <mxCell id="7FSGDcXbMSYoSn9ROhq5-25" value="RPI" style="text;html=1;align=center;verticalAlign=middle;whiteSpace=wrap;rounded=0;" vertex="1" parent="1">
          <mxGeometry x="60" y="70" width="60" height="30" as="geometry" />
        </mxCell>
        <mxCell id="7FSGDcXbMSYoSn9ROhq5-26" value="Compteur" style="whiteSpace=wrap;html=1;aspect=fixed;" vertex="1" parent="1">
          <mxGeometry x="130" y="130" width="80" height="80" as="geometry" />
        </mxCell>
      </root>
    </mxGraphModel>
  </diagram>
</mxfile>
